<svg id="svg" version="1.1" xmlns="http://www.w3.org/2000/svg" xmlns:xlink="http://www.w3.org/1999/xlink" width="400" height="497.1875" viewBox="0, 0, 400,497.1875"><g id="svgg"><path id="path0" d="M163.187 283.504 C 163.117 320.247,163.007 318.404,165.423 320.832 C 165.964 321.375,166.881 322.392,167.461 323.091 C 168.041 323.791,168.642 324.285,168.797 324.190 C 168.952 324.094,169.045 324.132,169.004 324.274 C 168.877 324.716,169.816 325.938,170.284 325.938 C 170.529 325.938,170.635 326.032,170.520 326.147 C 170.405 326.261,170.544 326.613,170.829 326.928 C 171.324 327.474,172.623 327.500,199.952 327.500 L 228.557 327.500 229.669 326.299 C 237.848 317.465,236.850 323.401,236.796 283.906 C 236.771 265.688,236.702 251.801,236.643 253.047 L 236.535 255.313 200.000 255.313 L 163.465 255.313 163.357 253.047 C 163.298 251.801,163.221 265.506,163.187 283.504 M0.313 265.477 C 0.313 275.210,0.341 275.707,0.973 276.966 C 2.064 279.137,3.126 280.334,4.489 280.930 C 5.200 281.240,7.750 282.439,10.156 283.594 C 12.563 284.749,16.289 286.538,18.438 287.569 C 20.586 288.600,23.328 289.905,24.531 290.469 C 25.734 291.033,29.180 292.679,32.188 294.128 C 35.195 295.576,38.254 297.025,38.984 297.347 L 40.313 297.933 40.382 317.326 C 40.420 327.992,40.494 334.645,40.546 332.109 L 40.642 327.500 86.406 327.500 L 132.171 327.500 132.278 332.109 C 132.337 334.645,132.364 323.500,132.338 307.344 C 132.296 281.827,132.223 277.579,131.783 275.000 C 130.884 269.738,130.032 267.327,127.695 263.438 C 126.365 261.225,123.870 258.438,123.220 258.438 C 122.996 258.438,122.813 258.313,122.813 258.161 C 122.812 258.008,122.355 257.653,121.797 257.371 C 120.339 256.634,119.564 256.139,119.308 255.781 C 119.161 255.575,98.839 255.441,59.699 255.387 L 0.313 255.305 0.313 265.477 M280.703 255.737 C 280.316 255.929,280.000 256.193,280.000 256.324 C 280.000 256.455,279.812 256.563,279.582 256.563 C 278.920 256.563,275.625 259.049,275.625 259.548 C 275.625 259.797,275.438 260.000,275.209 260.000 C 274.444 260.000,272.173 263.141,270.916 265.938 C 270.568 266.711,270.166 267.562,270.021 267.829 C 269.668 268.483,268.526 273.110,268.097 275.625 C 267.864 276.992,267.728 287.319,267.682 307.188 C 267.644 323.430,267.661 334.645,267.721 332.109 L 267.829 327.500 313.594 327.500 L 359.358 327.500 359.454 332.109 C 359.506 334.645,359.582 328.000,359.622 317.344 L 359.695 297.969 360.863 297.423 C 363.848 296.030,370.955 292.650,375.739 290.348 C 378.638 288.954,381.044 287.813,381.087 287.813 C 381.131 287.813,384.103 286.390,387.692 284.652 C 391.282 282.914,394.922 281.178,395.781 280.794 C 399.749 279.022,399.869 278.559,399.757 265.445 L 399.671 255.313 340.539 255.351 C 297.771 255.379,281.212 255.486,280.703 255.737 M172.721 329.024 C 173.441 329.716,173.926 329.912,173.595 329.377 C 173.489 329.206,173.094 328.907,172.717 328.713 L 172.031 328.360 172.721 329.024 " stroke="none" fill="#fbab44" fill-rule="evenodd"></path><path id="path1" d="M0.207 176.484 C 0.094 180.223,0.034 204.094,0.074 229.531 C 0.115 254.969,0.186 271.175,0.234 265.545 L 0.321 255.309 59.223 255.389 C 91.619 255.433,118.125 255.435,118.125 255.395 C 118.125 255.251,115.844 254.370,115.142 254.243 C 114.750 254.172,114.142 253.960,113.790 253.771 C 113.438 253.583,113.039 253.448,112.903 253.470 C 112.767 253.493,112.586 253.484,112.500 253.451 C 111.792 253.175,104.237 251.869,103.433 251.884 C 103.006 251.892,101.953 251.817,101.094 251.717 C 99.332 251.512,96.400 251.225,94.531 251.076 C 93.844 251.021,92.508 250.892,91.563 250.789 C 90.617 250.686,89.281 250.542,88.594 250.469 C 68.487 248.333,56.970 240.804,48.921 224.531 C 42.866 212.290,38.598 191.192,38.317 172.109 L 38.281 169.688 19.347 169.688 L 0.412 169.688 0.207 176.484 M39.844 170.000 C 39.950 170.172,40.240 170.313,40.487 170.313 C 40.735 170.313,40.938 170.418,40.939 170.547 C 40.942 170.889,42.824 171.905,43.117 171.724 C 43.254 171.639,43.540 171.779,43.753 172.035 C 43.965 172.291,44.262 172.500,44.413 172.500 C 44.564 172.500,44.969 172.781,45.313 173.125 C 45.656 173.469,46.212 173.750,46.547 173.750 C 46.882 173.750,47.269 173.940,47.406 174.173 C 47.544 174.405,48.310 174.957,49.110 175.399 C 49.909 175.841,51.136 176.565,51.838 177.008 C 52.539 177.450,53.189 177.813,53.282 177.813 C 53.375 177.813,53.975 178.147,54.616 178.556 C 55.257 178.964,58.172 180.669,61.094 182.345 C 64.016 184.020,68.023 186.338,70.000 187.495 C 74.085 189.886,97.436 203.374,124.375 218.902 C 147.524 232.246,148.698 232.924,151.719 234.704 C 153.094 235.514,154.790 236.464,155.489 236.815 C 160.132 239.149,162.895 244.302,163.298 251.380 L 163.522 255.313 199.996 255.313 L 236.471 255.313 236.688 251.641 C 237.236 242.355,238.811 240.161,249.253 234.146 C 264.241 225.511,277.317 217.958,288.906 211.239 C 290.994 210.029,296.178 207.048,303.281 202.973 C 307.406 200.607,312.398 197.720,314.375 196.559 C 316.352 195.398,318.461 194.168,319.063 193.826 C 319.664 193.484,322.898 191.618,326.250 189.679 C 329.602 187.741,332.766 185.916,333.281 185.625 C 334.295 185.052,341.339 180.967,343.125 179.916 C 343.727 179.563,345.977 178.235,348.125 176.967 C 350.273 175.698,352.313 174.495,352.656 174.292 C 353.000 174.090,353.809 173.602,354.453 173.208 C 355.098 172.814,355.625 172.590,355.625 172.710 C 355.625 172.831,356.030 172.542,356.525 172.068 C 357.311 171.314,357.854 171.055,358.847 170.961 C 358.986 170.948,359.013 170.798,358.908 170.629 C 358.799 170.451,358.924 170.399,359.203 170.506 C 359.469 170.608,359.688 170.547,359.688 170.369 C 359.688 170.191,359.934 169.982,360.234 169.903 C 360.535 169.824,288.527 169.744,200.216 169.724 C 93.243 169.700,39.715 169.792,39.844 170.000 M361.724 171.954 C 361.726 173.200,361.637 175.063,361.525 176.094 C 361.413 177.125,361.234 179.336,361.127 181.006 C 358.825 217.064,347.461 239.582,327.963 246.718 C 325.065 247.779,324.284 248.053,323.910 248.143 C 323.830 248.162,323.023 248.383,322.116 248.633 C 321.210 248.884,320.117 249.142,319.688 249.208 C 319.258 249.273,317.641 249.538,316.094 249.797 C 313.333 250.258,311.392 250.513,308.281 250.822 C 306.745 250.975,306.251 251.017,302.188 251.334 C 300.248 251.485,299.357 251.578,295.577 252.021 C 293.281 252.291,288.384 253.131,287.813 253.354 C 287.555 253.454,287.168 253.508,286.953 253.473 C 286.738 253.438,286.563 253.572,286.563 253.770 C 286.563 253.968,286.365 254.054,286.124 253.961 C 285.883 253.869,285.598 253.881,285.490 253.989 C 285.383 254.097,285.123 254.216,284.913 254.254 C 279.486 255.244,280.800 255.268,340.855 255.290 L 399.679 255.313 399.766 265.391 C 399.814 270.934,399.886 254.727,399.926 229.375 C 399.966 204.023,399.906 180.223,399.793 176.484 L 399.588 169.688 380.653 169.688 L 361.719 169.689 361.724 171.954 " stroke="none" fill="#fb9b3c" fill-rule="evenodd"></path><path id="path2" d="M43.051 418.013 C 42.581 418.263,41.808 418.977,41.333 419.600 L 40.469 420.732 40.387 456.698 L 40.305 492.664 41.012 494.048 C 41.401 494.809,42.116 495.722,42.601 496.075 L 43.483 496.719 199.724 496.798 C 338.186 496.868,356.068 496.823,356.873 496.408 C 357.372 496.149,358.174 495.422,358.656 494.790 L 359.531 493.642 359.531 457.212 L 359.531 420.781 358.631 419.605 C 356.922 417.371,358.257 417.478,333.366 417.572 C 308.066 417.667,309.971 417.467,308.594 420.176 C 307.992 421.360,307.965 422.117,307.881 440.391 L 307.794 459.375 289.060 459.375 L 270.326 459.375 270.241 439.914 L 270.156 420.453 269.428 419.523 C 267.785 417.426,269.037 417.528,244.756 417.513 C 220.973 417.499,221.546 417.460,220.063 419.198 C 218.773 420.710,218.750 421.077,218.750 440.489 L 218.750 459.375 200.000 459.375 L 181.250 459.375 181.250 440.507 C 181.250 418.749,181.296 419.072,178.027 417.833 C 176.227 417.152,133.830 417.407,132.284 418.108 C 129.592 419.331,129.688 418.513,129.688 440.300 L 129.688 459.375 110.938 459.375 L 92.188 459.375 92.188 440.973 C 92.188 420.244,92.175 420.112,90.046 418.489 L 88.955 417.656 66.431 417.608 C 47.275 417.567,43.778 417.628,43.051 418.013 " stroke="none" fill="#fccf5b" fill-rule="evenodd"></path><path id="path3" d="M2.859 0.840 C 2.283 1.125,1.439 1.922,0.984 2.610 L 0.156 3.861 0.146 91.383 C 0.140 139.521,0.179 176.834,0.232 174.302 L 0.329 169.697 19.461 169.614 C 29.984 169.569,38.760 169.602,38.962 169.688 C 39.165 169.773,111.798 169.773,200.368 169.688 C 288.939 169.602,370.016 169.569,380.539 169.614 L 399.671 169.697 399.768 174.302 C 399.821 176.834,399.860 139.521,399.854 91.383 L 399.844 3.861 399.012 2.604 C 397.377 0.133,399.990 0.294,363.069 0.386 L 330.156 0.469 329.104 1.219 C 326.750 2.898,326.890 0.648,326.882 37.109 L 326.875 69.688 308.906 69.688 L 290.938 69.688 290.938 44.441 L 290.937 19.195 290.234 17.802 C 289.772 16.886,289.103 16.169,288.281 15.707 L 287.031 15.006 254.163 15.081 C 217.137 15.166,220.575 14.931,218.828 17.497 L 218.125 18.530 218.125 44.109 L 218.125 69.688 200.000 69.688 L 181.875 69.688 181.875 44.109 L 181.875 18.530 181.172 17.497 C 179.425 14.931,182.863 15.166,145.837 15.081 L 112.969 15.006 111.719 15.707 C 110.897 16.169,110.228 16.886,109.766 17.802 L 109.062 19.195 109.063 44.441 L 109.063 69.688 91.094 69.688 L 73.125 69.688 73.118 37.109 C 73.110 0.648,73.250 2.898,70.896 1.219 L 69.844 0.469 36.875 0.395 C 6.708 0.328,3.817 0.366,2.859 0.840 M361.648 171.250 C 361.648 172.023,361.709 172.340,361.783 171.953 C 361.858 171.566,361.858 170.934,361.783 170.547 C 361.709 170.160,361.648 170.477,361.648 171.250 M357.144 171.568 L 356.406 172.198 357.266 171.830 C 357.738 171.628,358.125 171.344,358.125 171.200 C 358.125 170.810,357.958 170.873,357.144 171.568 M43.125 171.759 C 43.125 171.921,43.547 172.302,44.063 172.607 C 44.580 172.912,45.000 173.012,45.000 172.830 C 45.000 172.649,44.835 172.500,44.634 172.500 C 44.433 172.500,44.011 172.267,43.696 171.983 C 43.382 171.698,43.125 171.598,43.125 171.759 " stroke="none" fill="#fc862e" fill-rule="evenodd"></path><path id="path4" d="M40.519 334.297 C 40.406 338.035,40.317 349.602,40.320 360.000 C 40.327 381.137,40.273 380.601,42.542 382.218 L 43.594 382.969 86.025 383.050 C 123.482 383.122,128.563 383.076,129.374 382.657 C 130.775 381.932,131.789 380.671,132.162 379.189 C 132.542 377.680,132.636 345.641,132.293 334.297 L 132.088 327.500 86.406 327.500 L 40.725 327.500 40.519 334.297 M172.522 328.457 C 173.111 328.983,173.594 329.525,173.594 329.661 C 173.594 329.965,174.624 331.148,183.281 340.783 C 185.000 342.696,187.250 345.224,188.281 346.401 C 189.313 347.577,190.302 348.692,190.481 348.879 C 190.660 349.066,191.920 350.484,193.281 352.031 C 196.329 355.495,196.773 355.907,198.037 356.446 C 200.772 357.613,202.678 356.646,206.742 352.031 C 208.407 350.141,210.278 348.028,210.900 347.335 C 211.522 346.643,212.664 345.373,213.438 344.512 C 214.211 343.651,215.941 341.731,217.282 340.245 C 218.623 338.758,220.029 337.148,220.407 336.665 C 221.032 335.867,223.081 333.572,224.453 332.135 C 224.754 331.820,224.941 331.563,224.868 331.563 C 224.751 331.563,225.925 330.264,227.905 328.203 L 228.581 327.500 200.015 327.500 L 171.450 327.500 172.522 328.457 M267.707 334.297 C 267.364 345.641,267.458 377.680,267.838 379.189 C 268.211 380.671,269.225 381.932,270.626 382.657 C 271.437 383.076,276.518 383.122,313.975 383.050 L 356.406 382.969 357.458 382.218 C 359.727 380.601,359.673 381.137,359.680 360.000 C 359.683 349.602,359.594 338.035,359.481 334.297 L 359.275 327.500 313.594 327.500 L 267.912 327.500 267.707 334.297 " stroke="none" fill="#fcbc4c" fill-rule="evenodd"></path></g></svg>
